<svg version="1.1" id="Layer_1" xmlns="http://www.w3.org/2000/svg" xmlns:xlink="http://www.w3.org/1999/xlink" x="0px" y="0px"
	 width="100%" viewBox="0 0 2560 600" enable-background="new 0 0 2560 600" xml:space="preserve">
<path fill="#FFFFFF" opacity="1.000000" stroke="none" 
	d="
M1821.000000,601.000000 
	C1214.000122,601.000000 607.500244,601.000000 1.000244,601.000000 
	C1.000163,401.000153 1.000163,201.000290 1.000081,1.000216 
	C1.999856,1.000000 2.999711,1.000000 3.999567,1.000000 
	C856.332703,1.000000 1708.665894,1.000000 2560.999268,1.000000 
	C2560.999512,200.999680 2560.999512,400.999359 2560.999756,600.999512 
	C2314.500000,601.000000 2068.000000,601.000000 1821.000000,601.000000 
M855.022522,148.533691 
	C855.022522,239.819519 855.022522,331.105347 855.022522,422.841064 
	C850.282654,422.152496 845.996826,421.766602 841.815735,420.884094 
	C814.344482,415.085480 794.628723,400.175232 787.720581,372.044250 
	C785.092224,361.341156 784.248108,349.996124 784.105591,338.924164 
	C783.661804,304.436096 783.942993,269.938629 783.943054,235.444824 
	C783.943054,233.693329 783.942993,231.941849 783.942993,230.395798 
	C771.634644,230.395798 760.071594,230.395798 748.252563,230.395798 
	C748.252563,255.937241 748.031250,281.084442 748.323914,306.225677 
	C748.550598,325.697052 748.664673,345.221436 750.217346,364.611084 
	C751.755798,383.822113 758.393982,401.526550 770.672913,416.831421 
	C786.367676,436.393921 807.724976,445.485168 831.552551,449.918518 
	C839.195007,451.340485 846.983459,451.977325 855.071777,453.020660 
	C855.071777,484.336731 855.071777,515.432739 855.071777,546.753357 
	C866.875488,546.753357 878.273865,546.753357 890.082031,546.753357 
	C890.082031,515.411072 890.082031,484.313263 890.082031,452.956665 
	C892.565735,452.596191 894.679565,452.229156 896.807739,451.989838 
	C917.013000,449.717682 936.606018,444.910767 954.099548,434.396118 
	C983.860657,416.507904 997.410095,388.546143 1000.958496,354.986664 
	C1003.335754,332.504089 1002.406189,309.997314 999.632202,287.660858 
	C997.242249,268.417053 993.518127,249.338913 990.385010,230.194397 
	C977.565857,230.194397 965.950867,230.194397 954.057434,230.194397 
	C954.889587,234.143875 955.675659,237.863525 956.456909,241.584198 
	C964.112488,278.044708 969.485046,314.745117 965.895569,352.116089 
	C963.449768,377.579590 952.669250,398.296692 929.447998,411.110138 
	C917.352051,417.784576 904.420959,421.455475 889.997803,422.222534 
	C889.997803,327.539124 889.997803,233.331100 889.997803,139.217133 
	C878.033630,139.217133 866.646851,139.217133 855.022522,139.217133 
	C855.022522,142.244263 855.022522,144.894302 855.022522,148.533691 
M298.864502,378.278076 
	C299.556244,367.660492 301.034882,357.022949 300.766418,346.429718 
	C300.292114,327.717590 294.809723,310.405243 283.051392,295.464600 
	C268.799530,277.355530 250.554108,264.112885 230.798935,252.716217 
	C218.553696,245.651993 206.033493,239.002197 194.222778,231.271057 
	C187.500977,226.871094 181.035095,221.402954 176.059845,215.140106 
	C161.669220,197.025162 170.991379,172.836700 193.737732,168.983093 
	C211.673508,165.944489 229.251938,168.609375 246.110611,175.293060 
	C255.957031,179.196716 265.568146,183.693893 275.583679,188.054031 
	C280.561401,178.941833 285.553467,169.803421 290.523102,160.706085 
	C289.817261,160.090805 289.492401,159.672241 289.065216,159.454529 
	C258.816925,144.039520 227.143616,135.271973 192.838593,139.080612 
	C176.272324,140.919830 160.917908,146.147018 148.326004,157.385376 
	C132.025955,171.933273 128.088547,200.643646 138.869537,222.113098 
	C144.972580,234.266800 155.056122,242.702225 165.599136,250.638214 
	C171.143372,254.811508 177.075989,258.468842 182.446259,262.097656 
	C172.214386,266.720154 161.686203,270.854370 151.743393,276.098511 
	C131.331467,286.864288 115.127609,302.026184 105.733658,323.565308 
	C98.487877,340.178986 97.076355,357.641937 99.069748,375.434631 
	C102.121780,402.676392 115.304779,423.708954 138.780472,437.910675 
	C160.867493,451.272278 185.213089,454.372833 210.460938,452.424896 
	C227.580536,451.104065 243.910095,447.032318 258.751556,437.969666 
	C280.991852,424.389099 293.760406,404.423737 298.864502,378.278076 
M1090.012817,438.483826 
	C1110.545044,452.624268 1133.468384,455.054779 1157.385986,451.883881 
	C1178.059204,449.143097 1193.679932,437.944336 1206.137329,421.732605 
	C1206.860718,420.791107 1208.503784,419.552094 1209.190674,419.817688 
	C1210.271240,420.235504 1211.083862,421.722992 1211.693604,422.918945 
	C1214.984131,429.373444 1217.268555,436.572235 1221.588623,442.223602 
	C1231.262939,454.879578 1256.001465,455.658417 1270.328247,448.728546 
	C1271.296265,448.260254 1272.362671,446.789917 1272.385254,445.763641 
	C1272.556519,437.970551 1272.479004,430.171997 1272.479004,422.009857 
	C1267.928589,422.619568 1263.841431,423.651459 1259.763794,423.615112 
	C1250.601685,423.533386 1244.024536,416.633270 1243.887695,405.886566 
	C1243.490845,374.742371 1243.212646,343.585938 1243.672729,312.445892 
	C1243.918213,295.829926 1245.383423,279.197296 1247.060669,262.649475 
	C1248.160767,251.796112 1250.625000,241.081024 1252.530396,230.001236 
	C1244.425903,230.001236 1235.949219,229.892166 1227.481567,230.119720 
	C1226.222046,230.153580 1224.432251,231.500641 1223.861084,232.702652 
	C1220.164551,240.482651 1216.577515,248.324814 1213.296021,256.287323 
	C1211.832764,259.837952 1210.576172,260.194702 1208.286987,257.141388 
	C1206.591797,254.880310 1204.885132,252.615463 1203.020874,250.495331 
	C1187.427490,232.761276 1167.297119,226.091049 1144.239746,225.820465 
	C1100.845581,225.311234 1070.170654,246.500626 1057.020996,287.800964 
	C1047.266846,318.436432 1047.446289,349.764130 1053.866577,381.069611 
	C1058.649536,404.390930 1069.655518,424.010010 1090.012817,438.483826 
M1939.359375,420.329987 
	C1942.726074,418.288757 1942.994995,420.953064 1944.015869,423.130981 
	C1947.021606,429.543060 1949.395142,436.511627 1953.615234,442.042358 
	C1963.666138,455.215240 1988.928467,455.493805 2002.750244,448.615021 
	C2003.615234,448.184479 2004.634399,446.966919 2004.650391,446.098297 
	C2004.796631,438.160889 2004.736206,430.219696 2004.736206,421.999664 
	C2000.041748,422.618073 1995.934204,423.671234 1991.848145,423.593750 
	C1982.547729,423.417419 1976.092285,416.176422 1975.988770,405.273376 
	C1975.705933,375.456726 1975.277588,345.626129 1975.897705,315.821716 
	C1976.302124,296.385406 1978.113525,276.954681 1979.937988,257.582062 
	C1980.801880,248.409393 1983.173584,239.378723 1984.915161,229.998001 
	C1976.625854,229.998001 1968.304688,229.867645 1959.995361,230.124725 
	C1958.588257,230.168259 1956.585693,231.567322 1955.959961,232.869476 
	C1952.373779,240.332443 1949.146118,247.967026 1945.728027,255.512253 
	C1945.153931,256.779205 1944.243042,257.893585 1943.487671,259.078461 
	C1942.348389,258.244537 1941.047363,257.562286 1940.098145,256.550140 
	C1936.123047,252.312134 1932.563477,247.635330 1928.288940,243.736160 
	C1913.570801,230.310745 1895.617554,226.085434 1876.238892,225.843353 
	C1833.106567,225.304565 1802.458252,246.560150 1789.223999,287.484802 
	C1780.082520,315.753632 1779.951660,344.808868 1784.586182,373.922180 
	C1787.673218,393.314484 1794.439697,411.244049 1807.928833,425.975891 
	C1825.687744,445.370880 1848.133423,453.167877 1874.112915,453.118256 
	C1901.216431,453.066498 1922.825195,442.815521 1939.359375,420.329987 
M2449.560303,448.910400 
	C2450.352539,447.985565 2451.810791,447.076111 2451.832275,446.133453 
	C2452.015869,438.171722 2451.937012,430.203979 2451.937012,421.994415 
	C2448.333008,422.469971 2445.214111,422.847107 2442.105957,423.298309 
	C2433.614746,424.530914 2425.915527,419.592255 2424.115967,411.240509 
	C2423.248535,407.215149 2422.993652,402.994415 2422.975830,398.859924 
	C2422.873535,375.195221 2422.981201,351.529694 2422.912598,327.864746 
	C2422.817139,295.010315 2424.080078,262.299438 2432.645508,229.997147 
	C2424.572998,229.997147 2416.581543,230.137604 2408.599365,229.923569 
	C2405.673096,229.845078 2403.880615,230.783432 2402.737305,233.380798 
	C2399.530518,240.666214 2396.311523,247.946747 2393.017334,255.192917 
	C2392.386475,256.580963 2391.391602,257.803589 2390.564453,259.102448 
	C2389.354004,258.080780 2388.089355,257.116516 2386.942627,256.027863 
	C2380.578125,249.986313 2374.904541,242.954651 2367.771484,238.035217 
	C2347.351318,223.952133 2324.092529,223.476440 2300.967285,227.882385 
	C2265.105469,234.715012 2244.536621,258.344452 2234.948975,292.467407 
	C2228.276123,316.216980 2227.738281,340.478638 2230.407715,364.822510 
	C2232.159424,380.795593 2235.917725,396.359650 2244.047119,410.412659 
	C2263.436279,443.930389 2295.120850,456.080566 2331.681641,452.521881 
	C2344.977295,451.227722 2357.672363,447.758087 2368.078369,438.951233 
	C2374.266602,433.713959 2379.668701,427.552643 2385.502930,421.887604 
	C2386.479980,420.938995 2387.815674,419.993469 2389.070068,419.864288 
	C2389.629883,419.806580 2390.515625,421.719116 2391.038330,422.837799 
	C2391.525391,423.879883 2391.717773,425.058197 2392.056396,426.171448 
	C2397.298584,443.397278 2408.340332,452.461365 2426.356201,452.678894 
	C2433.823242,452.769012 2441.319336,450.436859 2449.560303,448.910400 
M689.436401,421.315094 
	C682.825623,417.264832 681.107666,410.762665 681.059631,403.706604 
	C680.912170,382.053314 681.029602,360.398376 680.923218,338.744659 
	C680.743958,302.285339 681.103760,265.882263 690.667053,229.998154 
	C682.200684,229.998154 673.879211,229.874573 665.568176,230.114136 
	C664.102295,230.156372 661.976929,231.369278 661.353882,232.632339 
	C657.762878,239.912811 654.562500,247.385010 651.153870,254.757202 
	C650.448914,256.281830 649.423279,257.658203 648.545410,259.102875 
	C647.245117,257.937286 645.921265,256.796722 644.648499,255.601822 
	C638.254211,249.598770 632.530701,242.611542 625.362671,237.753708 
	C605.027466,223.972336 581.944946,223.501358 559.005676,227.873169 
	C523.166077,234.703583 502.472565,258.278351 493.011169,292.405548 
	C485.320129,320.147156 485.206421,348.370392 490.264008,376.548920 
	C493.570221,394.969543 500.352264,412.027588 513.326294,426.082031 
	C531.051697,445.283539 553.263733,453.102203 579.049988,453.112762 
	C605.498535,453.123596 626.916626,443.520081 643.085510,422.443237 
	C644.001648,421.249023 645.587708,420.568665 646.861938,419.649139 
	C647.676758,420.958130 648.590820,422.216461 649.289185,423.584869 
	C652.436707,429.752136 654.655334,436.618958 658.803833,442.004974 
	C668.821289,455.010498 693.707336,455.623657 707.935547,448.643372 
	C708.867859,448.185974 709.850464,446.713409 709.871460,445.693756 
	C710.031921,437.893463 709.959534,430.088379 709.959534,423.338287 
	C702.990173,422.772247 696.533386,422.247803 689.436401,421.315094 
M1576.304810,437.185455 
	C1585.058960,447.456726 1595.582764,454.304932 1609.510620,455.224335 
	C1626.888916,456.371460 1642.326538,450.780884 1656.666016,441.768097 
	C1663.490723,437.478607 1669.684448,432.185394 1676.383423,427.182983 
	C1676.892334,428.657867 1677.407104,430.178864 1677.941528,431.692963 
	C1681.543823,441.900665 1688.413818,448.696686 1699.157959,450.673767 
	C1703.664062,451.502930 1708.497070,451.507568 1713.056763,450.919678 
	C1728.292358,448.955322 1739.463867,440.412811 1748.653809,428.480377 
	C1746.921265,426.229340 1745.551514,424.449707 1744.247681,422.755676 
	C1741.088745,424.430939 1738.528687,425.989960 1735.811157,427.194061 
	C1725.041138,431.966309 1715.901367,428.476532 1712.267700,417.398987 
	C1710.277222,411.331451 1709.078125,404.715210 1709.048950,398.339386 
	C1708.823853,349.017273 1708.971802,299.693481 1709.004150,250.370224 
	C1709.005249,248.570450 1709.004272,246.770660 1709.004272,244.854706 
	C1697.215210,244.854706 1685.838989,244.854706 1674.191284,244.854706 
	C1674.191284,247.262787 1674.191284,249.251923 1674.191284,251.241058 
	C1674.191284,301.231720 1674.233032,351.222534 1674.077393,401.212738 
	C1674.068848,403.938263 1673.037842,407.123230 1671.418091,409.303314 
	C1663.159058,420.419342 1652.472900,428.701202 1639.147339,432.543671 
	C1618.383057,438.531097 1596.199341,433.413666 1588.699829,407.021179 
	C1585.227417,394.801422 1582.587158,381.937805 1582.283081,369.300812 
	C1581.333374,329.829712 1581.677368,290.327515 1581.521362,250.837387 
	C1581.513672,248.889069 1581.520264,246.940704 1581.520264,244.822937 
	C1569.722656,244.822937 1558.522583,244.822937 1547.066040,244.822937 
	C1547.066040,247.033096 1547.067383,248.855972 1547.065918,250.678833 
	C1547.019409,309.667786 1546.959229,368.656769 1546.931396,427.645721 
	C1546.916016,460.139008 1546.715332,492.635651 1547.167603,525.122864 
	C1547.260010,531.751343 1549.092163,538.665955 1551.571167,544.869751 
	C1554.459961,552.099548 1560.745483,555.447388 1568.814331,555.120850 
	C1576.456787,554.811523 1581.816040,550.684631 1583.754150,543.948730 
	C1585.482910,537.940552 1586.147705,531.088379 1585.151611,524.954712 
	C1583.480225,514.664978 1579.480347,504.767059 1577.593628,494.496063 
	C1573.338745,471.332245 1569.776978,448.041138 1565.933228,424.801819 
	C1566.448120,424.682678 1566.963013,424.563568 1567.477905,424.444427 
	C1570.278198,428.501282 1573.078491,432.558105 1576.304810,437.185455 
M1310.614624,389.052124 
	C1301.907471,408.843750 1293.200195,428.635406 1284.239624,449.002838 
	C1296.035400,449.002838 1306.694580,448.874390 1317.347046,449.082062 
	C1320.499023,449.143463 1321.941284,448.124725 1323.185547,445.222565 
	C1334.647461,418.488190 1346.353149,391.858398 1357.865601,365.145508 
	C1370.885620,334.934845 1384.966797,305.126709 1393.296265,273.105194 
	C1393.470825,272.433990 1394.124023,271.887299 1394.688965,271.092621 
	C1395.222900,271.789703 1395.644531,272.122040 1395.777344,272.545105 
	C1401.553711,290.928619 1406.867432,309.471100 1413.154053,327.677673 
	C1424.381714,360.192993 1435.862183,392.631744 1448.009399,424.810974 
	C1450.853027,432.344147 1455.796631,439.706177 1461.519531,445.389374 
	C1470.763428,454.569244 1495.319702,455.700531 1506.587402,448.847748 
	C1507.307495,448.409851 1508.108765,447.377838 1508.119141,446.611969 
	C1508.229858,438.493500 1508.187744,430.372925 1508.187744,421.935486 
	C1505.504883,422.342499 1503.363159,422.521240 1501.293213,423.006470 
	C1491.822998,425.226318 1485.509155,420.831055 1481.060547,413.105743 
	C1478.751343,409.095184 1476.792480,404.814392 1475.219238,400.459137 
	C1462.740845,365.913239 1450.489624,331.285156 1437.979004,296.750946 
	C1424.450684,259.407013 1410.928345,222.058029 1396.953735,184.880264 
	C1392.392578,172.745789 1386.652100,160.929916 1377.045532,151.754242 
	C1355.939331,131.594498 1330.751465,134.628632 1305.334229,138.926010 
	C1305.334229,148.977600 1305.334229,158.401199 1305.334229,167.420013 
	C1313.380005,166.905457 1321.154785,166.138580 1328.942627,165.970169 
	C1342.326782,165.680710 1352.767090,171.257050 1358.302856,183.603897 
	C1364.953247,198.437210 1370.651978,213.695053 1376.927246,228.700287 
	C1378.458496,232.361725 1378.203735,235.478668 1376.601685,239.102982 
	C1354.625488,288.816467 1332.790649,338.592407 1310.614624,389.052124 
M2195.559814,256.207581 
	C2195.559814,247.583801 2195.559814,238.960022 2195.559814,230.300232 
	C2194.351562,230.156830 2193.703857,230.012833 2193.056396,230.012680 
	C2144.401611,230.001114 2095.747070,229.992889 2047.092407,230.039154 
	C2045.654907,230.040527 2044.100830,230.372818 2042.799561,230.977570 
	C2034.354858,234.901978 2025.938110,238.889420 2017.590454,243.014618 
	C2016.472168,243.567245 2015.101440,244.969025 2015.034302,246.051208 
	C2014.750000,250.634842 2014.913696,255.246262 2014.913696,260.279327 
	C2034.797241,260.279327 2054.049805,260.279327 2073.817383,260.279327 
	C2073.817383,262.494080 2073.817383,264.286133 2073.817383,266.078186 
	C2073.817383,304.901947 2073.760010,343.725830 2073.871338,382.549286 
	C2073.891357,389.525360 2074.184326,396.554657 2075.084717,403.463867 
	C2077.542725,422.326294 2086.292236,437.713745 2103.980225,445.551910 
	C2129.112305,456.688782 2155.219727,455.235474 2181.206299,447.983917 
	C2182.327148,447.671082 2183.901611,446.170990 2183.927490,445.188629 
	C2184.145996,436.921234 2184.052002,428.645599 2184.052002,421.699768 
	C2170.374268,422.488007 2157.132080,424.103363 2143.932617,423.808929 
	C2124.873291,423.383759 2113.175049,411.872314 2110.871582,393.000519 
	C2110.348633,388.716003 2110.074463,384.373993 2110.067627,380.057831 
	C2110.006348,341.900665 2110.031494,303.743408 2110.031250,265.586151 
	C2110.031250,263.846771 2110.031250,262.107361 2110.031250,260.162994 
	C2112.678711,260.162994 2114.501465,260.162994 2116.324463,260.162994 
	C2141.151611,260.162964 2165.978760,260.177643 2190.805908,260.136475 
	C2192.900879,260.132996 2195.891602,261.164307 2195.559814,256.207581 
M412.781647,422.000580 
	C403.831177,419.561310 397.693634,413.677643 395.415497,405.004272 
	C393.410980,397.372711 392.314667,389.285797 392.269867,381.391724 
	C391.994568,332.900482 392.131897,284.406860 392.131897,235.914047 
	C392.131897,234.005600 392.131897,232.097153 392.131897,230.307068 
	C379.926514,230.307068 368.499664,230.307068 356.770966,230.307068 
	C356.770966,231.921066 356.770935,233.233276 356.770966,234.545502 
	C356.772614,284.204803 356.723572,333.864258 356.833862,383.523315 
	C356.849365,390.497314 357.189819,397.534210 358.168030,404.430145 
	C360.716522,422.395508 367.708252,438.153564 385.083252,446.181366 
	C407.905304,456.725983 431.450348,454.381012 454.829681,447.520477 
	C455.774963,447.243073 456.982758,445.726074 457.002716,444.764496 
	C457.174744,436.479462 457.101593,428.189301 457.101593,419.542603 
	C453.273071,420.268188 450.037903,421.037811 446.758392,421.474365 
	C435.732239,422.942017 424.708069,425.162842 412.781647,422.000580 
z"/>
<path fill="#06BF86" opacity="1.000000" stroke="none" 
	d="
M855.022522,148.039032 
	C855.022522,144.894302 855.022522,142.244263 855.022522,139.217133 
	C866.646851,139.217133 878.033630,139.217133 889.997803,139.217133 
	C889.997803,233.331100 889.997803,327.539124 889.997803,422.222534 
	C904.420959,421.455475 917.352051,417.784576 929.447998,411.110138 
	C952.669250,398.296692 963.449768,377.579590 965.895569,352.116089 
	C969.485046,314.745117 964.112488,278.044708 956.456909,241.584198 
	C955.675659,237.863525 954.889587,234.143875 954.057434,230.194397 
	C965.950867,230.194397 977.565857,230.194397 990.385010,230.194397 
	C993.518127,249.338913 997.242249,268.417053 999.632202,287.660858 
	C1002.406189,309.997314 1003.335754,332.504089 1000.958496,354.986664 
	C997.410095,388.546143 983.860657,416.507904 954.099548,434.396118 
	C936.606018,444.910767 917.013000,449.717682 896.807739,451.989838 
	C894.679565,452.229156 892.565735,452.596191 890.082031,452.956665 
	C890.082031,484.313263 890.082031,515.411072 890.082031,546.753357 
	C878.273865,546.753357 866.875488,546.753357 855.071777,546.753357 
	C855.071777,515.432739 855.071777,484.336731 855.071777,453.020660 
	C846.983459,451.977325 839.195007,451.340485 831.552551,449.918518 
	C807.724976,445.485168 786.367676,436.393921 770.672913,416.831421 
	C758.393982,401.526550 751.755798,383.822113 750.217346,364.611084 
	C748.664673,345.221436 748.550598,325.697052 748.323914,306.225677 
	C748.031250,281.084442 748.252563,255.937241 748.252563,230.395798 
	C760.071594,230.395798 771.634644,230.395798 783.942993,230.395798 
	C783.942993,231.941849 783.943054,233.693329 783.943054,235.444824 
	C783.942993,269.938629 783.661804,304.436096 784.105591,338.924164 
	C784.248108,349.996124 785.092224,361.341156 787.720581,372.044250 
	C794.628723,400.175232 814.344482,415.085480 841.815735,420.884094 
	C845.996826,421.766602 850.282654,422.152496 855.022522,422.841064 
	C855.022522,331.105347 855.022522,239.819519 855.022522,148.039032 
z"/>
<path fill="#07BF86" opacity="1.000000" stroke="none" 
	d="
M298.770264,378.694885 
	C293.760406,404.423737 280.991852,424.389099 258.751556,437.969666 
	C243.910095,447.032318 227.580536,451.104065 210.460938,452.424896 
	C185.213089,454.372833 160.867493,451.272278 138.780472,437.910675 
	C115.304779,423.708954 102.121780,402.676392 99.069748,375.434631 
	C97.076355,357.641937 98.487877,340.178986 105.733658,323.565308 
	C115.127609,302.026184 131.331467,286.864288 151.743393,276.098511 
	C161.686203,270.854370 172.214386,266.720154 182.446259,262.097656 
	C177.075989,258.468842 171.143372,254.811508 165.599136,250.638214 
	C155.056122,242.702225 144.972580,234.266800 138.869537,222.113098 
	C128.088547,200.643646 132.025955,171.933273 148.326004,157.385376 
	C160.917908,146.147018 176.272324,140.919830 192.838593,139.080612 
	C227.143616,135.271973 258.816925,144.039520 289.065216,159.454529 
	C289.492401,159.672241 289.817261,160.090805 290.523102,160.706085 
	C285.553467,169.803421 280.561401,178.941833 275.583679,188.054031 
	C265.568146,183.693893 255.957031,179.196716 246.110611,175.293060 
	C229.251938,168.609375 211.673508,165.944489 193.737732,168.983093 
	C170.991379,172.836700 161.669220,197.025162 176.059845,215.140106 
	C181.035095,221.402954 187.500977,226.871094 194.222778,231.271057 
	C206.033493,239.002197 218.553696,245.651993 230.798935,252.716217 
	C250.554108,264.112885 268.799530,277.355530 283.051392,295.464600 
	C294.809723,310.405243 300.292114,327.717590 300.766418,346.429718 
	C301.034882,357.022949 299.556244,367.660492 298.770264,378.694885 
M250.645844,308.909088 
	C241.893234,301.036377 233.304672,292.970520 224.336014,285.352142 
	C217.181503,279.274780 209.596603,278.123932 200.122604,281.693146 
	C183.230469,288.057129 167.263046,295.448639 154.928345,308.998718 
	C139.230042,326.243835 134.191620,347.094360 136.318939,369.655426 
	C138.784042,395.798706 154.512390,414.617889 177.973495,420.588654 
	C192.073654,424.177094 206.286652,424.234344 220.416245,420.393646 
	C238.697662,415.424377 251.716705,404.291351 258.065155,386.430511 
	C260.868805,378.542664 262.583984,370.054382 263.365967,361.704987 
	C265.111786,343.064758 262.521088,325.162659 250.645844,308.909088 
z"/>
<path fill="#06BF86" opacity="1.000000" stroke="none" 
	d="
M1089.715820,438.280396 
	C1069.655518,424.010010 1058.649536,404.390930 1053.866577,381.069611 
	C1047.446289,349.764130 1047.266846,318.436432 1057.020996,287.800964 
	C1070.170654,246.500626 1100.845581,225.311234 1144.239746,225.820465 
	C1167.297119,226.091049 1187.427490,232.761276 1203.020874,250.495331 
	C1204.885132,252.615463 1206.591797,254.880310 1208.286987,257.141388 
	C1210.576172,260.194702 1211.832764,259.837952 1213.296021,256.287323 
	C1216.577515,248.324814 1220.164551,240.482651 1223.861084,232.702652 
	C1224.432251,231.500641 1226.222046,230.153580 1227.481567,230.119720 
	C1235.949219,229.892166 1244.425903,230.001236 1252.530396,230.001236 
	C1250.625000,241.081024 1248.160767,251.796112 1247.060669,262.649475 
	C1245.383423,279.197296 1243.918213,295.829926 1243.672729,312.445892 
	C1243.212646,343.585938 1243.490845,374.742371 1243.887695,405.886566 
	C1244.024536,416.633270 1250.601685,423.533386 1259.763794,423.615112 
	C1263.841431,423.651459 1267.928589,422.619568 1272.479004,422.009857 
	C1272.479004,430.171997 1272.556519,437.970551 1272.385254,445.763641 
	C1272.362671,446.789917 1271.296265,448.260254 1270.328247,448.728546 
	C1256.001465,455.658417 1231.262939,454.879578 1221.588623,442.223602 
	C1217.268555,436.572235 1214.984131,429.373444 1211.693604,422.918945 
	C1211.083862,421.722992 1210.271240,420.235504 1209.190674,419.817688 
	C1208.503784,419.552094 1206.860718,420.791107 1206.137329,421.732605 
	C1193.679932,437.944336 1178.059204,449.143097 1157.385986,451.883881 
	C1133.468384,455.054779 1110.545044,452.624268 1089.715820,438.280396 
M1097.507446,396.902710 
	C1104.731079,410.345795 1115.699585,419.060944 1130.807129,421.435974 
	C1139.124268,422.743561 1147.766479,423.317444 1156.141968,422.669373 
	C1180.569458,420.779175 1195.828247,408.855957 1202.197632,385.222992 
	C1210.684937,353.731323 1210.380127,321.966431 1200.634033,290.663055 
	C1195.856934,275.319550 1186.073853,264.211670 1170.225708,259.492859 
	C1165.312622,258.029968 1160.203613,256.901550 1155.109009,256.424713 
	C1125.716797,253.673752 1103.862183,263.043427 1093.350830,293.996063 
	C1086.369751,314.552948 1086.024414,335.864319 1087.520630,357.248199 
	C1088.467163,370.776093 1091.079712,383.955750 1097.507446,396.902710 
z"/>
<path fill="#07C086" opacity="1.000000" stroke="none" 
	d="
M1939.126709,420.647339 
	C1922.825195,442.815521 1901.216431,453.066498 1874.112915,453.118256 
	C1848.133423,453.167877 1825.687744,445.370880 1807.928833,425.975891 
	C1794.439697,411.244049 1787.673218,393.314484 1784.586182,373.922180 
	C1779.951660,344.808868 1780.082520,315.753632 1789.223999,287.484802 
	C1802.458252,246.560150 1833.106567,225.304565 1876.238892,225.843353 
	C1895.617554,226.085434 1913.570801,230.310745 1928.288940,243.736160 
	C1932.563477,247.635330 1936.123047,252.312134 1940.098145,256.550140 
	C1941.047363,257.562286 1942.348389,258.244537 1943.487671,259.078461 
	C1944.243042,257.893585 1945.153931,256.779205 1945.728027,255.512253 
	C1949.146118,247.967026 1952.373779,240.332443 1955.959961,232.869476 
	C1956.585693,231.567322 1958.588257,230.168259 1959.995361,230.124725 
	C1968.304688,229.867645 1976.625854,229.998001 1984.915161,229.998001 
	C1983.173584,239.378723 1980.801880,248.409393 1979.937988,257.582062 
	C1978.113525,276.954681 1976.302124,296.385406 1975.897705,315.821716 
	C1975.277588,345.626129 1975.705933,375.456726 1975.988770,405.273376 
	C1976.092285,416.176422 1982.547729,423.417419 1991.848145,423.593750 
	C1995.934204,423.671234 2000.041748,422.618073 2004.736206,421.999664 
	C2004.736206,430.219696 2004.796631,438.160889 2004.650391,446.098297 
	C2004.634399,446.966919 2003.615234,448.184479 2002.750244,448.615021 
	C1988.928467,455.493805 1963.666138,455.215240 1953.615234,442.042358 
	C1949.395142,436.511627 1947.021606,429.543060 1944.015869,423.130981 
	C1942.994995,420.953064 1942.726074,418.288757 1939.126709,420.647339 
M1917.034058,412.577393 
	C1926.838623,405.420441 1931.960205,395.175507 1934.890991,383.901367 
	C1941.927979,356.829773 1941.953003,329.450806 1935.960693,302.270935 
	C1933.993652,293.349091 1930.374023,284.391479 1925.661377,276.563293 
	C1917.325562,262.717163 1903.117554,258.088837 1887.864136,256.491333 
	C1858.478394,253.413773 1835.553467,262.841675 1825.714844,293.977997 
	C1816.146606,324.258545 1816.450684,355.027283 1825.094604,385.537079 
	C1828.728149,398.362122 1835.390991,409.941956 1847.838501,415.839294 
	C1870.951172,426.789673 1894.099487,426.574127 1917.034058,412.577393 
z"/>
<path fill="#07BF86" opacity="1.000000" stroke="none" 
	d="
M2449.181152,449.058350 
	C2441.319336,450.436859 2433.823242,452.769012 2426.356201,452.678894 
	C2408.340332,452.461365 2397.298584,443.397278 2392.056396,426.171448 
	C2391.717773,425.058197 2391.525391,423.879883 2391.038330,422.837799 
	C2390.515625,421.719116 2389.629883,419.806580 2389.070068,419.864288 
	C2387.815674,419.993469 2386.479980,420.938995 2385.502930,421.887604 
	C2379.668701,427.552643 2374.266602,433.713959 2368.078369,438.951233 
	C2357.672363,447.758087 2344.977295,451.227722 2331.681641,452.521881 
	C2295.120850,456.080566 2263.436279,443.930389 2244.047119,410.412659 
	C2235.917725,396.359650 2232.159424,380.795593 2230.407715,364.822510 
	C2227.738281,340.478638 2228.276123,316.216980 2234.948975,292.467407 
	C2244.536621,258.344452 2265.105469,234.715012 2300.967285,227.882385 
	C2324.092529,223.476440 2347.351318,223.952133 2367.771484,238.035217 
	C2374.904541,242.954651 2380.578125,249.986313 2386.942627,256.027863 
	C2388.089355,257.116516 2389.354004,258.080780 2390.564453,259.102478 
	C2391.391602,257.803589 2392.386475,256.580963 2393.017334,255.192917 
	C2396.311523,247.946747 2399.530518,240.666214 2402.737305,233.380798 
	C2403.880615,230.783432 2405.673096,229.845078 2408.599365,229.923569 
	C2416.581543,230.137604 2424.572998,229.997147 2432.645508,229.997147 
	C2424.080078,262.299438 2422.817139,295.010315 2422.912598,327.864746 
	C2422.981201,351.529694 2422.873535,375.195221 2422.975830,398.859924 
	C2422.993652,402.994415 2423.248535,407.215149 2424.115967,411.240509 
	C2425.915527,419.592255 2433.614746,424.530914 2442.105957,423.298309 
	C2445.214111,422.847107 2448.333008,422.469971 2451.937012,421.994415 
	C2451.937012,430.203979 2452.015869,438.171722 2451.832275,446.133453 
	C2451.810791,447.076111 2450.352539,447.985565 2449.181152,449.058350 
M2276.821045,396.592560 
	C2283.216064,408.645325 2292.663818,416.984497 2306.014893,420.559540 
	C2316.618164,423.398773 2327.384766,423.764801 2338.221680,422.466034 
	C2360.811279,419.758820 2375.882080,407.517914 2381.627197,385.582336 
	C2389.931641,353.874237 2389.884521,321.987366 2379.981445,290.510223 
	C2374.367432,272.665344 2362.249756,261.411835 2343.687744,258.004639 
	C2336.541748,256.692932 2329.145996,256.025970 2321.887207,256.177460 
	C2300.660645,256.620605 2285.166992,266.371338 2276.082764,285.854858 
	C2269.484375,300.006500 2267.200928,315.089600 2266.562256,330.461304 
	C2265.630127,352.898560 2266.647705,375.102661 2276.821045,396.592560 
z"/>
<path fill="#07BF86" opacity="1.000000" stroke="none" 
	d="
M689.756531,421.519226 
	C696.533386,422.247803 702.990173,422.772247 709.959534,423.338287 
	C709.959534,430.088379 710.031921,437.893463 709.871460,445.693756 
	C709.850464,446.713409 708.867859,448.185974 707.935547,448.643372 
	C693.707336,455.623657 668.821289,455.010498 658.803833,442.004974 
	C654.655334,436.618958 652.436707,429.752136 649.289185,423.584869 
	C648.590820,422.216461 647.676758,420.958130 646.861938,419.649139 
	C645.587708,420.568665 644.001648,421.249023 643.085510,422.443237 
	C626.916626,443.520081 605.498535,453.123596 579.049988,453.112762 
	C553.263733,453.102203 531.051697,445.283539 513.326294,426.082031 
	C500.352264,412.027588 493.570221,394.969543 490.264008,376.548920 
	C485.206421,348.370392 485.320129,320.147156 493.011169,292.405548 
	C502.472565,258.278351 523.166077,234.703583 559.005676,227.873169 
	C581.944946,223.501358 605.027466,223.972336 625.362671,237.753708 
	C632.530701,242.611542 638.254211,249.598770 644.648499,255.601822 
	C645.921265,256.796722 647.245117,257.937286 648.545410,259.102875 
	C649.423279,257.658203 650.448914,256.281830 651.153870,254.757202 
	C654.562500,247.385010 657.762878,239.912811 661.353882,232.632339 
	C661.976929,231.369278 664.102295,230.156372 665.568176,230.114136 
	C673.879211,229.874573 682.200684,229.998154 690.667053,229.998154 
	C681.103760,265.882263 680.743958,302.285339 680.923218,338.744659 
	C681.029602,360.398376 680.912170,382.053314 681.059631,403.706604 
	C681.107666,410.762665 682.825623,417.264832 689.756531,421.519226 
M533.883118,394.563141 
	C540.593384,408.652130 551.134766,418.469055 566.744324,420.946747 
	C576.491516,422.493896 586.664246,423.122681 596.465210,422.213989 
	C619.142761,420.111572 634.030273,407.265594 639.720520,385.346558 
	C647.955933,353.623535 647.896790,321.730896 637.929443,290.276733 
	C632.344360,272.651611 620.298645,261.512787 601.963074,258.037903 
	C595.147522,256.746246 588.097595,256.084686 581.162720,256.141724 
	C559.133362,256.322876 543.066895,266.092987 533.812073,286.532623 
	C527.439270,300.607300 525.203125,315.507568 524.565430,330.698914 
	C523.659302,352.282867 524.643677,373.666046 533.883118,394.563141 
z"/>
<path fill="#07BF86" opacity="1.000000" stroke="none" 
	d="
M1576.091797,436.900208 
	C1573.078491,432.558105 1570.278198,428.501282 1567.477905,424.444427 
	C1566.963013,424.563568 1566.448120,424.682678 1565.933228,424.801819 
	C1569.776978,448.041138 1573.338745,471.332245 1577.593628,494.496063 
	C1579.480347,504.767059 1583.480225,514.664978 1585.151611,524.954712 
	C1586.147705,531.088379 1585.482910,537.940552 1583.754150,543.948730 
	C1581.816040,550.684631 1576.456787,554.811523 1568.814331,555.120850 
	C1560.745483,555.447388 1554.459961,552.099548 1551.571167,544.869751 
	C1549.092163,538.665955 1547.260010,531.751343 1547.167603,525.122864 
	C1546.715332,492.635651 1546.916016,460.139008 1546.931396,427.645721 
	C1546.959229,368.656769 1547.019409,309.667786 1547.065918,250.678833 
	C1547.067383,248.855972 1547.066040,247.033096 1547.066040,244.822937 
	C1558.522583,244.822937 1569.722656,244.822937 1581.520264,244.822937 
	C1581.520264,246.940704 1581.513672,248.889069 1581.521362,250.837387 
	C1581.677368,290.327515 1581.333374,329.829712 1582.283081,369.300812 
	C1582.587158,381.937805 1585.227417,394.801422 1588.699829,407.021179 
	C1596.199341,433.413666 1618.383057,438.531097 1639.147339,432.543671 
	C1652.472900,428.701202 1663.159058,420.419342 1671.418091,409.303314 
	C1673.037842,407.123230 1674.068848,403.938263 1674.077393,401.212738 
	C1674.233032,351.222534 1674.191284,301.231720 1674.191284,251.241058 
	C1674.191284,249.251923 1674.191284,247.262787 1674.191284,244.854706 
	C1685.838989,244.854706 1697.215210,244.854706 1709.004272,244.854706 
	C1709.004272,246.770660 1709.005249,248.570450 1709.004150,250.370224 
	C1708.971802,299.693481 1708.823853,349.017273 1709.048950,398.339386 
	C1709.078125,404.715210 1710.277222,411.331451 1712.267700,417.398987 
	C1715.901367,428.476532 1725.041138,431.966309 1735.811157,427.194061 
	C1738.528687,425.989960 1741.088745,424.430939 1744.247681,422.755676 
	C1745.551514,424.449707 1746.921265,426.229340 1748.653809,428.480377 
	C1739.463867,440.412811 1728.292358,448.955322 1713.056763,450.919678 
	C1708.497070,451.507568 1703.664062,451.502930 1699.157959,450.673767 
	C1688.413818,448.696686 1681.543823,441.900665 1677.941528,431.692963 
	C1677.407104,430.178864 1676.892334,428.657867 1676.383423,427.182983 
	C1669.684448,432.185394 1663.490723,437.478607 1656.666016,441.768097 
	C1642.326538,450.780884 1626.888916,456.371460 1609.510620,455.224335 
	C1595.582764,454.304932 1585.058960,447.456726 1576.091797,436.900208 
z"/>
<path fill="#07BF86" opacity="1.000000" stroke="none" 
	d="
M1310.767822,388.702576 
	C1332.790649,338.592407 1354.625488,288.816467 1376.601685,239.102982 
	C1378.203735,235.478668 1378.458496,232.361725 1376.927246,228.700287 
	C1370.651978,213.695053 1364.953247,198.437210 1358.302856,183.603897 
	C1352.767090,171.257050 1342.326782,165.680710 1328.942627,165.970169 
	C1321.154785,166.138580 1313.380005,166.905457 1305.334229,167.420013 
	C1305.334229,158.401199 1305.334229,148.977600 1305.334229,138.926010 
	C1330.751465,134.628632 1355.939331,131.594498 1377.045532,151.754242 
	C1386.652100,160.929916 1392.392578,172.745789 1396.953735,184.880264 
	C1410.928345,222.058029 1424.450684,259.407013 1437.979004,296.750946 
	C1450.489624,331.285156 1462.740845,365.913239 1475.219238,400.459137 
	C1476.792480,404.814392 1478.751343,409.095184 1481.060547,413.105743 
	C1485.509155,420.831055 1491.822998,425.226318 1501.293213,423.006470 
	C1503.363159,422.521240 1505.504883,422.342499 1508.187744,421.935486 
	C1508.187744,430.372925 1508.229858,438.493500 1508.119141,446.611969 
	C1508.108765,447.377838 1507.307495,448.409851 1506.587402,448.847748 
	C1495.319702,455.700531 1470.763428,454.569244 1461.519531,445.389374 
	C1455.796631,439.706177 1450.853027,432.344147 1448.009399,424.810974 
	C1435.862183,392.631744 1424.381714,360.192993 1413.154053,327.677673 
	C1406.867432,309.471100 1401.553711,290.928619 1395.777344,272.545105 
	C1395.644531,272.122040 1395.222900,271.789703 1394.688965,271.092621 
	C1394.124023,271.887299 1393.470825,272.433990 1393.296265,273.105194 
	C1384.966797,305.126709 1370.885620,334.934845 1357.865601,365.145508 
	C1346.353149,391.858398 1334.647461,418.488190 1323.185547,445.222565 
	C1321.941284,448.124725 1320.499023,449.143463 1317.347046,449.082062 
	C1306.694580,448.874390 1296.035400,449.002838 1284.239624,449.002838 
	C1293.200195,428.635406 1301.907471,408.843750 1310.767822,388.702576 
z"/>
<path fill="#06BF85" opacity="1.000000" stroke="none" 
	d="
M2195.558105,256.674286 
	C2195.891602,261.164307 2192.900879,260.132996 2190.805908,260.136475 
	C2165.978760,260.177643 2141.151611,260.162964 2116.324463,260.162994 
	C2114.501465,260.162994 2112.678711,260.162994 2110.031250,260.162994 
	C2110.031250,262.107361 2110.031250,263.846771 2110.031250,265.586151 
	C2110.031494,303.743408 2110.006348,341.900665 2110.067627,380.057831 
	C2110.074463,384.373993 2110.348633,388.716003 2110.871582,393.000519 
	C2113.175049,411.872314 2124.873291,423.383759 2143.932617,423.808929 
	C2157.132080,424.103363 2170.374268,422.488007 2184.052002,421.699768 
	C2184.052002,428.645599 2184.145996,436.921234 2183.927490,445.188629 
	C2183.901611,446.170990 2182.327148,447.671082 2181.206299,447.983917 
	C2155.219727,455.235474 2129.112305,456.688782 2103.980225,445.551910 
	C2086.292236,437.713745 2077.542725,422.326294 2075.084717,403.463867 
	C2074.184326,396.554657 2073.891357,389.525360 2073.871338,382.549286 
	C2073.760010,343.725830 2073.817383,304.901947 2073.817383,266.078186 
	C2073.817383,264.286133 2073.817383,262.494080 2073.817383,260.279327 
	C2054.049805,260.279327 2034.797241,260.279327 2014.913696,260.279327 
	C2014.913696,255.246262 2014.750000,250.634842 2015.034302,246.051208 
	C2015.101440,244.969025 2016.472168,243.567245 2017.590454,243.014618 
	C2025.938110,238.889420 2034.354858,234.901978 2042.799561,230.977570 
	C2044.100830,230.372818 2045.654907,230.040527 2047.092407,230.039154 
	C2095.747070,229.992889 2144.401611,230.001114 2193.056396,230.012680 
	C2193.703857,230.012833 2194.351562,230.156830 2195.559814,230.300232 
	C2195.559814,238.960022 2195.559814,247.583801 2195.558105,256.674286 
z"/>
<path fill="#06BF85" opacity="1.000000" stroke="none" 
	d="
M413.182312,422.089264 
	C424.708069,425.162842 435.732239,422.942017 446.758392,421.474365 
	C450.037903,421.037811 453.273071,420.268188 457.101593,419.542603 
	C457.101593,428.189301 457.174744,436.479462 457.002716,444.764496 
	C456.982758,445.726074 455.774963,447.243073 454.829681,447.520477 
	C431.450348,454.381012 407.905304,456.725983 385.083252,446.181366 
	C367.708252,438.153564 360.716522,422.395508 358.168030,404.430145 
	C357.189819,397.534210 356.849365,390.497314 356.833862,383.523315 
	C356.723572,333.864258 356.772614,284.204803 356.770966,234.545502 
	C356.770935,233.233276 356.770966,231.921066 356.770966,230.307068 
	C368.499664,230.307068 379.926514,230.307068 392.131897,230.307068 
	C392.131897,232.097153 392.131897,234.005600 392.131897,235.914047 
	C392.131897,284.406860 391.994568,332.900482 392.269867,381.391724 
	C392.314667,389.285797 393.410980,397.372711 395.415497,405.004272 
	C397.693634,413.677643 403.831177,419.561310 413.182312,422.089264 
z"/>
<path fill="#FEFFFF" opacity="1.000000" stroke="none" 
	d="
M250.848785,309.206635 
	C262.521088,325.162659 265.111786,343.064758 263.365967,361.704987 
	C262.583984,370.054382 260.868805,378.542664 258.065155,386.430511 
	C251.716705,404.291351 238.697662,415.424377 220.416245,420.393646 
	C206.286652,424.234344 192.073654,424.177094 177.973495,420.588654 
	C154.512390,414.617889 138.784042,395.798706 136.318939,369.655426 
	C134.191620,347.094360 139.230042,326.243835 154.928345,308.998718 
	C167.263046,295.448639 183.230469,288.057129 200.122604,281.693146 
	C209.596603,278.123932 217.181503,279.274780 224.336014,285.352142 
	C233.304672,292.970520 241.893234,301.036377 250.848785,309.206635 
z"/>
<path fill="#FEFFFF" opacity="1.000000" stroke="none" 
	d="
M1097.324097,396.577698 
	C1091.079712,383.955750 1088.467163,370.776093 1087.520630,357.248199 
	C1086.024414,335.864319 1086.369751,314.552948 1093.350830,293.996063 
	C1103.862183,263.043427 1125.716797,253.673752 1155.109009,256.424713 
	C1160.203613,256.901550 1165.312622,258.029968 1170.225708,259.492859 
	C1186.073853,264.211670 1195.856934,275.319550 1200.634033,290.663055 
	C1210.380127,321.966431 1210.684937,353.731323 1202.197632,385.222992 
	C1195.828247,408.855957 1180.569458,420.779175 1156.141968,422.669373 
	C1147.766479,423.317444 1139.124268,422.743561 1130.807129,421.435974 
	C1115.699585,419.060944 1104.731079,410.345795 1097.324097,396.577698 
z"/>
<path fill="#FEFFFF" opacity="1.000000" stroke="none" 
	d="
M1916.738037,412.785156 
	C1894.099487,426.574127 1870.951172,426.789673 1847.838501,415.839294 
	C1835.390991,409.941956 1828.728149,398.362122 1825.094604,385.537079 
	C1816.450684,355.027283 1816.146606,324.258545 1825.714844,293.977997 
	C1835.553467,262.841675 1858.478394,253.413773 1887.864136,256.491333 
	C1903.117554,258.088837 1917.325562,262.717163 1925.661377,276.563293 
	C1930.374023,284.391479 1933.993652,293.349091 1935.960693,302.270935 
	C1941.953003,329.450806 1941.927979,356.829773 1934.890991,383.901367 
	C1931.960205,395.175507 1926.838623,405.420441 1916.738037,412.785156 
z"/>
<path fill="#FEFFFF" opacity="1.000000" stroke="none" 
	d="
M2276.637207,396.269409 
	C2266.647705,375.102661 2265.630127,352.898560 2266.562256,330.461304 
	C2267.200928,315.089600 2269.484375,300.006500 2276.082764,285.854858 
	C2285.166992,266.371338 2300.660645,256.620605 2321.887207,256.177460 
	C2329.145996,256.025970 2336.541748,256.692932 2343.687744,258.004639 
	C2362.249756,261.411835 2374.367432,272.665344 2379.981445,290.510223 
	C2389.884521,321.987366 2389.931641,353.874237 2381.627197,385.582336 
	C2375.882080,407.517914 2360.811279,419.758820 2338.221680,422.466034 
	C2327.384766,423.764801 2316.618164,423.398773 2306.014893,420.559540 
	C2292.663818,416.984497 2283.216064,408.645325 2276.637207,396.269409 
z"/>
<path fill="#FEFFFF" opacity="1.000000" stroke="none" 
	d="
M533.712646,394.225830 
	C524.643677,373.666046 523.659302,352.282867 524.565430,330.698914 
	C525.203125,315.507568 527.439270,300.607300 533.812073,286.532623 
	C543.066895,266.092987 559.133362,256.322876 581.162720,256.141724 
	C588.097595,256.084686 595.147522,256.746246 601.963074,258.037903 
	C620.298645,261.512787 632.344360,272.651611 637.929443,290.276733 
	C647.896790,321.730896 647.955933,353.623535 639.720520,385.346558 
	C634.030273,407.265594 619.142761,420.111572 596.465210,422.213989 
	C586.664246,423.122681 576.491516,422.493896 566.744324,420.946747 
	C551.134766,418.469055 540.593384,408.652130 533.712646,394.225830 
z"/>
</svg>